<?xml version="1.0" encoding="UTF-8"?>
<!-- Generated by jsxcad -->
<!DOCTYPE svg PUBLIC "-//W3C//DTD SVG 1.1 Tiny//EN" "http://www.w3.org/Graphics/SVG/1.1/DTD/svg11-tiny.dtd">
<svg baseProfile="tiny" height="20.000000000000014mm" width="70.00000000000006mm" viewBox="-35.00000000000003 -10.000000000000007 70.00000000000006 20.000000000000014" version="1.1" stroke="black" stroke-width=".1" fill="none" xmlns="http://www.w3.org/2000/svg">
<path fill="#000000" stroke="#000000" d="M33.02975077599438 -4.137961581272939 L33.02975077599438 -4.137961581272939 L32.513754265932754 -3.101700895405342 L32.513754265932754 -3.101700895405342 z"/>
<path fill="#000000" stroke="#000000" d="M32.513754265932754 -3.101700895405342 L32.513754265932754 -3.101700895405342 L31.65826131306367 -2.321816022451715 L31.65826131306367 -2.321816022451715 z"/>
<path fill="#000000" stroke="#000000" d="M31.65826131306367 -2.3218160224517153 L31.65826131306367 -2.3218160224517153 L30.578810981122192 -1.9036347359957086 L30.578810981122192 -1.9036347359957086 z"/>
<path fill="#000000" stroke="#000000" d="M30.578810981122192 -1.9036347359957098 L30.578810981122192 -1.9036347359957098 L29.421189018877804 -1.9036347359957089 L29.421189018877804 -1.9036347359957089 z"/>
<path fill="#000000" stroke="#000000" d="M28.354899491008258 2.343071450844957 L28.354899491008258 2.343071450844957 L29.425782756823214 1.9282090634878075 L29.425782756823214 1.9282090634878075 z"/>
<path fill="#000000" stroke="#000000" d="M29.4211890188778 -1.9036347359957098 L29.4211890188778 -1.9036347359957098 L28.341738686936328 -2.3218160224517153 L28.341738686936328 -2.3218160224517153 z"/>
<path fill="#000000" stroke="#000000" d="M29.42578275682321 1.9282090634878073 L29.42578275682321 1.9282090634878073 L30.574217243176776 1.9282090634878064 L30.574217243176776 1.9282090634878064 z"/>
<path fill="#000000" stroke="#000000" d="M27.879999999999995 2.7759995398123936 L27.879999999999995 2.7759995398123936 L28.354899491008258 2.3430714508449597 L28.354899491008258 2.3430714508449597 z"/>
<path fill="#000000" stroke="#000000" d="M27.88 7.289935445744297 L27.88 7.289935445744297 L27.88 2.775999539812392 L27.88 2.775999539812392 z"/>
<path fill="#000000" stroke="#000000" d="M28.341738686936328 -2.3218160224517175 L28.341738686936328 -2.3218160224517175 L27.486245734067246 -3.1017008954053416 L27.486245734067246 -3.1017008954053416 z"/>
<path fill="#000000" stroke="#000000" d="M23.11166930092198 5.288338623322817 L23.11166930092198 5.288338623322817 L22.79738528548457 6.392932361801679 L22.79738528548457 6.392932361801679 z"/>
<path fill="#000000" stroke="#000000" d="M22.79738528548457 6.392932361801679 L22.79738528548457 6.392932361801679 L22.10529888639549 7.309402866314559 L22.10529888639549 7.309402866314559 z"/>
<path fill="#000000" stroke="#000000" d="M28.871119793165146 7.913975716888611 L28.871119793165146 7.913975716888611 L27.894701113604505 7.309402866314558 L27.894701113604505 7.309402866314558 z"/>
<path fill="#000000" stroke="#000000" d="M30.57421724317678 1.928209063487806 L30.57421724317678 1.928209063487806 L31.645100508991728 2.343071450844952 L31.645100508991728 2.343071450844952 z"/>
<path fill="#000000" stroke="#000000" d="M31.128880206834847 7.913975716888613 L31.128880206834847 7.913975716888613 L29.999999999999996 8.125 L29.999999999999996 8.125 z"/>
<path fill="#000000" stroke="#000000" d="M31.64510050899173 2.3430714508449535 L31.64510050899173 2.3430714508449535 L32.49380383525074 3.1167667613148193 L32.49380383525074 3.1167667613148193 z"/>
<path fill="#000000" stroke="#000000" d="M32.10529888639549 7.30940286631456 L32.10529888639549 7.30940286631456 L31.128880206834847 7.913975716888614 L31.128880206834847 7.913975716888614 z"/>
<path fill="#000000" stroke="#000000" d="M22.105298886395484 7.309402866314562 L22.105298886395484 7.309402866314562 L21.128880206834843 7.913975716888615 L21.128880206834843 7.913975716888615 z"/>
<path fill="#000000" stroke="#000000" d="M32.797385285484566 6.392932361801679 L32.797385285484566 6.392932361801679 L32.10529888639549 7.309402866314559 L32.10529888639549 7.309402866314559 z"/>
<path fill="#000000" stroke="#000000" d="M33.005705134915054 4.1448031560247385 L33.005705134915054 4.1448031560247385 L33.11166930092198 5.288338623322817 L33.11166930092198 5.288338623322817 z"/>
<path fill="#000000" stroke="#000000" d="M32.122141277486655 -7.327878089245075 L32.122141277486655 -7.327878089245075 L32.81976436776844 -6.404075820696096 L32.81976436776844 -6.404075820696096 z"/>
<path fill="#000000" stroke="#000000" d="M32.81976436776844 -6.404075820696095 L32.81976436776844 -6.404075820696095 L33.13656265532936 -5.290645332309401 L33.13656265532936 -5.290645332309401 z"/>
<path fill="#000000" stroke="#000000" d="M31.13791124848953 -7.937287522623721 L31.13791124848953 -7.937287522623721 L32.12214127748665 -7.327878089245078 L32.12214127748665 -7.327878089245078 z"/>
<path fill="#000000" stroke="#000000" d="M29.999999999999993 -8.15 L29.999999999999993 -8.15 L31.137911248489527 -7.937287522623721 L31.137911248489527 -7.937287522623721 z"/>
<path fill="#000000" stroke="#000000" d="M28.862088751510466 -7.937287522623721 L28.862088751510466 -7.937287522623721 L29.999999999999996 -8.149999999999999 L29.999999999999996 -8.149999999999999 z"/>
<path fill="#000000" stroke="#000000" d="M27.87785872251334 -7.327878089245074 L27.87785872251334 -7.327878089245074 L28.862088751510466 -7.93728752262372 L28.862088751510466 -7.93728752262372 z"/>
<path fill="#000000" stroke="#000000" d="M21.12888020683485 -7.913975716888613 L21.12888020683485 -7.913975716888613 L22.105298886395488 -7.30940286631456 L22.105298886395488 -7.30940286631456 z"/>
<path fill="#000000" stroke="#000000" d="M22.105298886395488 -7.309402866314559 L22.105298886395488 -7.309402866314559 L22.79738528548457 -6.392932361801682 L22.79738528548457 -6.392932361801682 z"/>
<path fill="#000000" stroke="#000000" d="M26.86343734467064 -5.290645332309399 L26.86343734467064 -5.290645332309399 L27.18023563223155 -6.404075820696093 L27.18023563223155 -6.404075820696093 z"/>
<path fill="#000000" stroke="#000000" d="M26.97024922400562 -4.137961581272936 L26.97024922400562 -4.137961581272936 L26.86343734467064 -5.290645332309399 L26.86343734467064 -5.290645332309399 z"/>
<path fill="#000000" stroke="#000000" d="M27.894701113604505 7.309402866314559 L27.894701113604505 7.309402866314559 L27.88 7.289935445744296 L27.88 7.289935445744296 z"/>
<path fill="#000000" stroke="#000000" d="M33.11166930092198 5.288338623322817 L33.11166930092198 5.288338623322817 L32.797385285484566 6.392932361801679 L32.797385285484566 6.392932361801679 z"/>
<path fill="#000000" stroke="#000000" d="M32.493803835250745 3.116766761314822 L32.493803835250745 3.116766761314822 L33.005705134915054 4.1448031560247385 L33.005705134915054 4.1448031560247385 z"/>
<path fill="#000000" stroke="#000000" d="M23.005705134915058 -4.144803156024741 L23.005705134915058 -4.144803156024741 L22.49380383525075 -3.1167667613148233 L22.49380383525075 -3.1167667613148233 z"/>
<path fill="#000000" stroke="#000000" d="M22.493803835250745 -3.116766761314823 L22.493803835250745 -3.116766761314823 L21.645100508991735 -2.343071450844955 L21.645100508991735 -2.343071450844955 z"/>
<path fill="#000000" stroke="#000000" d="M21.645100508991735 -2.343071450844956 L21.645100508991735 -2.343071450844956 L20.57421724317678 -1.9282090634878064 L20.57421724317678 -1.9282090634878064 z"/>
<path fill="#000000" stroke="#000000" d="M20.574217243176783 -1.928209063487807 L20.574217243176783 -1.928209063487807 L19.425782756823214 -1.9282090634878062 L19.425782756823214 -1.9282090634878062 z"/>
<path fill="#000000" stroke="#000000" d="M19.425782756823214 -1.928209063487807 L19.425782756823214 -1.928209063487807 L18.35489949100826 -2.3430714508449544 L18.35489949100826 -2.3430714508449544 z"/>
<path fill="#000000" stroke="#000000" d="M18.35489949100826 2.3430714508449566 L18.35489949100826 2.3430714508449566 L19.425782756823214 1.928209063487808 L19.425782756823214 1.928209063487808 z"/>
<path fill="#000000" stroke="#000000" d="M19.425782756823214 1.9282090634878073 L19.425782756823214 1.9282090634878073 L20.57421724317678 1.9282090634878064 L20.57421724317678 1.9282090634878064 z"/>
<path fill="#000000" stroke="#000000" d="M17.9 7.312683797865799 L17.9 7.312683797865799 L17.9 2.757767130758918 L17.9 2.757767130758918 z"/>
<path fill="#000000" stroke="#000000" d="M18.35489949100826 -2.3430714508449557 L18.35489949100826 -2.3430714508449557 L17.506196164749248 -3.1167667613148247 L17.506196164749248 -3.1167667613148247 z"/>
<path fill="#000000" stroke="#000000" d="M17.899999999999995 2.7577671307589204 L17.899999999999995 2.7577671307589204 L18.354899491008258 2.3430714508449597 L18.354899491008258 2.3430714508449597 z"/>
<path fill="#000000" stroke="#000000" d="M13.111669300921982 5.288338623322817 L13.111669300921982 5.288338623322817 L12.79738528548457 6.392932361801679 L12.79738528548457 6.392932361801679 z"/>
<path fill="#000000" stroke="#000000" d="M12.10529888639549 7.30940286631456 L12.10529888639549 7.30940286631456 L11.128880206834848 7.913975716888614 L11.128880206834848 7.913975716888614 z"/>
<path fill="#000000" stroke="#000000" d="M20.57421724317678 1.9282090634878062 L20.57421724317678 1.9282090634878062 L21.64510050899173 2.3430714508449535 L21.64510050899173 2.3430714508449535 z"/>
<path fill="#000000" stroke="#000000" d="M21.128880206834847 7.913975716888613 L21.128880206834847 7.913975716888613 L19.999999999999996 8.125 L19.999999999999996 8.125 z"/>
<path fill="#000000" stroke="#000000" d="M21.64510050899173 2.343071450844952 L21.64510050899173 2.343071450844952 L22.493803835250745 3.116766761314821 L22.493803835250745 3.116766761314821 z"/>
<path fill="#000000" stroke="#000000" d="M29.999999999999993 8.124999999999998 L29.999999999999993 8.124999999999998 L28.871119793165143 7.9139757168886105 L28.871119793165143 7.9139757168886105 z"/>
<path fill="#000000" stroke="#000000" d="M22.493803835250745 3.116766761314822 L22.493803835250745 3.116766761314822 L23.005705134915058 4.1448031560247385 L23.005705134915058 4.1448031560247385 z"/>
<path fill="#000000" stroke="#000000" d="M18.871119793165143 7.9139757168886105 L18.871119793165143 7.9139757168886105 L17.9 7.312683797865799 L17.9 7.312683797865799 z"/>
<path fill="#000000" stroke="#000000" d="M22.79738528548457 -6.392932361801681 L22.79738528548457 -6.392932361801681 L23.11166930092198 -5.288338623322819 L23.11166930092198 -5.288338623322819 z"/>
<path fill="#000000" stroke="#000000" d="M27.18023563223155 -6.404075820696093 L27.18023563223155 -6.404075820696093 L27.87785872251334 -7.3278780892450746 L27.87785872251334 -7.3278780892450746 z"/>
<path fill="#000000" stroke="#000000" d="M19.999999999999996 -8.125 L19.999999999999996 -8.125 L21.128880206834847 -7.913975716888612 L21.128880206834847 -7.913975716888612 z"/>
<path fill="#000000" stroke="#000000" d="M18.871119793165146 -7.913975716888612 L18.871119793165146 -7.913975716888612 L19.999999999999996 -8.124999999999998 L19.999999999999996 -8.124999999999998 z"/>
<path fill="#000000" stroke="#000000" d="M9.999999999999998 -8.1 L9.999999999999998 -8.1 L11.119849165180172 -7.890663911153503 L11.119849165180172 -7.890663911153503 z"/>
<path fill="#000000" stroke="#000000" d="M17.202614714515427 -6.392932361801679 L17.202614714515427 -6.392932361801679 L17.894701113604505 -7.309402866314559 L17.894701113604505 -7.309402866314559 z"/>
<path fill="#000000" stroke="#000000" d="M16.888330699078015 -5.288338623322817 L16.888330699078015 -5.288338623322817 L17.202614714515427 -6.392932361801679 L17.202614714515427 -6.392932361801679 z"/>
<path fill="#000000" stroke="#000000" d="M12.775006203200693 -6.381788902907268 L12.775006203200693 -6.381788902907268 L13.086775946514607 -5.2860319143362355 L13.086775946514607 -5.2860319143362355 z"/>
<path fill="#000000" stroke="#000000" d="M12.79738528548457 6.392932361801679 L12.79738528548457 6.392932361801679 L12.105298886395492 7.309402866314559 L12.105298886395492 7.309402866314559 z"/>
<path fill="#000000" stroke="#000000" d="M35 10 L35 10 L35 -10 L35 -10 z"/>
<path fill="#000000" stroke="#000000" d="M33.13656265532936 -5.290645332309401 L33.13656265532936 -5.290645332309401 L33.02975077599438 -4.137961581272939 L33.02975077599438 -4.137961581272939 z"/>
<path fill="#000000" stroke="#000000" d="M16.99429486508494 -4.1448031560247385 L16.99429486508494 -4.1448031560247385 L16.888330699078015 -5.288338623322817 L16.888330699078015 -5.288338623322817 z"/>
<path fill="#000000" stroke="#000000" d="M12.493803835250747 3.116766761314822 L12.493803835250747 3.116766761314822 L13.005705134915058 4.1448031560247385 L13.005705134915058 4.1448031560247385 z"/>
<path fill="#000000" stroke="#000000" d="M11.645100508991733 2.343071450844954 L11.645100508991733 2.343071450844954 L12.493803835250745 3.116766761314821 L12.493803835250745 3.116766761314821 z"/>
<path fill="#000000" stroke="#000000" d="M10.57421724317678 1.928209063487806 L10.57421724317678 1.928209063487806 L11.645100508991733 2.343071450844954 L11.645100508991733 2.343071450844954 z"/>
<path fill="#000000" stroke="#000000" d="M10.569623505231368 -1.9527833909799044 L10.569623505231368 -1.9527833909799044 L9.43037649476863 -1.952783390979904 L9.43037649476863 -1.952783390979904 z"/>
<path fill="#000000" stroke="#000000" d="M9.430376494768632 -1.9527833909799042 L9.430376494768632 -1.9527833909799042 L8.368060295080198 -2.364326879238195 L8.368060295080198 -2.364326879238195 z"/>
<path fill="#000000" stroke="#000000" d="M8.354899491008261 2.3430714508449566 L8.354899491008261 2.3430714508449566 L9.425782756823216 1.9282090634878073 L9.425782756823216 1.9282090634878073 z"/>
<path fill="#000000" stroke="#000000" d="M7.919999999999999 2.7395347217054464 L7.919999999999999 2.7395347217054464 L8.354899491008261 2.3430714508449566 L8.354899491008261 2.3430714508449566 z"/>
<path fill="#000000" stroke="#000000" d="M8.368060295080198 -2.364326879238195 L8.368060295080198 -2.364326879238195 L7.526146595431257 -3.1318326272243047 L7.526146595431257 -3.1318326272243047 z"/>
<path fill="#000000" stroke="#000000" d="M9.425782756823216 1.9282090634878073 L9.425782756823216 1.9282090634878073 L10.57421724317678 1.9282090634878064 L10.57421724317678 1.9282090634878064 z"/>
<path fill="#000000" stroke="#000000" d="M8.871119793165146 7.9139757168886105 L8.871119793165146 7.9139757168886105 L7.919999999999999 7.3250672735864 L7.919999999999999 7.3250672735864 z"/>
<path fill="#000000" stroke="#000000" d="M11.631939704919802 -2.364326879238196 L11.631939704919802 -2.364326879238196 L10.569623505231368 -1.9527833909799042 L10.569623505231368 -1.9527833909799042 z"/>
<path fill="#000000" stroke="#000000" d="M12.473853404568741 -3.1318326272243047 L12.473853404568741 -3.1318326272243047 L11.631939704919802 -2.3643268792381957 L11.631939704919802 -2.3643268792381957 z"/>
<path fill="#000000" stroke="#000000" d="M11.128880206834848 7.913975716888613 L11.128880206834848 7.913975716888613 L9.999999999999998 8.125 L9.999999999999998 8.125 z"/>
<path fill="#000000" stroke="#000000" d="M12.981659493835739 -4.151644730776543 L12.981659493835739 -4.151644730776543 L12.473853404568741 -3.131832627224305 L12.473853404568741 -3.131832627224305 z"/>
<path fill="#000000" stroke="#000000" d="M19.999999999999996 8.124999999999998 L19.999999999999996 8.124999999999998 L18.871119793165143 7.913975716888611 L18.871119793165143 7.913975716888611 z"/>
<path fill="#000000" stroke="#000000" d="M23.11166930092198 -5.288338623322819 L23.11166930092198 -5.288338623322819 L23.005705134915058 -4.14480315602474 L23.005705134915058 -4.14480315602474 z"/>
<path fill="#000000" stroke="#000000" d="M23.005705134915058 4.1448031560247385 L23.005705134915058 4.1448031560247385 L23.11166930092198 5.288338623322817 L23.11166930092198 5.288338623322817 z"/>
<path fill="#000000" stroke="#000000" d="M27.486245734067246 -3.101700895405341 L27.486245734067246 -3.101700895405341 L26.97024922400562 -4.137961581272936 L26.97024922400562 -4.137961581272936 z"/>
<path fill="#000000" stroke="#000000" d="M12.088456495304326 -7.290927643384043 L12.088456495304326 -7.290927643384043 L12.775006203200693 -6.381788902907267 L12.775006203200693 -6.381788902907267 z"/>
<path fill="#000000" stroke="#000000" d="M17.894701113604505 -7.309402866314559 L17.894701113604505 -7.309402866314559 L18.871119793165146 -7.913975716888612 L18.871119793165146 -7.913975716888612 z"/>
<path fill="#000000" stroke="#000000" d="M8.880150834819826 -7.890663911153504 L8.880150834819826 -7.890663911153504 L10 -8.1 L10 -8.1 z"/>
<path fill="#000000" stroke="#000000" d="M1.8828944536890555e-16 -8.075 L1.8828944536890555e-16 -8.075 L1.1108181235254948 -7.867352105418394 L1.1108181235254948 -7.867352105418394 z"/>
<path fill="#000000" stroke="#000000" d="M1.1108181235254948 -7.867352105418394 L1.1108181235254948 -7.867352105418394 L2.0716141042131633 -7.272452420453527 L2.0716141042131633 -7.272452420453527 z"/>
<path fill="#000000" stroke="#000000" d="M2.071614104213164 -7.272452420453526 L2.071614104213164 -7.272452420453526 L2.7526271209168165 -6.370645444012855 L2.7526271209168165 -6.370645444012855 z"/>
<path fill="#000000" stroke="#000000" d="M7.224993796799305 -6.3817889029072665 L7.224993796799305 -6.3817889029072665 L7.911543504695672 -7.290927643384043 L7.911543504695672 -7.290927643384043 z"/>
<path fill="#000000" stroke="#000000" d="M6.913224053485392 -5.286031914336234 L6.913224053485392 -5.286031914336234 L7.224993796799305 -6.381788902907266 L7.224993796799305 -6.381788902907266 z"/>
<path fill="#000000" stroke="#000000" d="M2.7526271209168165 -6.370645444012855 L2.7526271209168165 -6.370645444012855 L3.061882592107231 -5.283725205349653 L3.061882592107231 -5.283725205349653 z"/>
<path fill="#000000" stroke="#000000" d="M2.7973852854845704 6.392932361801679 L2.7973852854845704 6.392932361801679 L2.1052988863954916 7.309402866314559 L2.1052988863954916 7.309402866314559 z"/>
<path fill="#000000" stroke="#000000" d="M7.526146595431259 -3.1318326272243038 L7.526146595431259 -3.1318326272243038 L7.018340506164261 -4.151644730776541 L7.018340506164261 -4.151644730776541 z"/>
<path fill="#000000" stroke="#000000" d="M7.92 7.3250672735864 L7.92 7.3250672735864 L7.92 2.739534721705446 L7.92 2.739534721705446 z"/>
<path fill="#000000" stroke="#000000" d="M11.119849165180172 -7.890663911153503 L11.119849165180172 -7.890663911153503 L12.088456495304325 -7.290927643384044 L12.088456495304325 -7.290927643384044 z"/>
<path fill="#000000" stroke="#000000" d="M7.018340506164261 -4.15164473077654 L7.018340506164261 -4.15164473077654 L6.913224053485393 -5.286031914336235 L6.913224053485393 -5.286031914336235 z"/>
<path fill="#000000" stroke="#000000" d="M2.493803835250747 3.116766761314822 L2.493803835250747 3.116766761314822 L3.0057051349150585 4.1448031560247385 L3.0057051349150585 4.1448031560247385 z"/>
<path fill="#000000" stroke="#000000" d="M1.6451005089917348 2.343071450844954 L1.6451005089917348 2.343071450844954 L2.493803835250747 3.1167667613148224 L2.493803835250747 3.1167667613148224 z"/>
<path fill="#000000" stroke="#000000" d="M0.574217243176781 1.9282090634878062 L0.574217243176781 1.9282090634878062 L1.6451005089917345 2.343071450844954 L1.6451005089917345 2.343071450844954 z"/>
<path fill="#000000" stroke="#000000" d="M0.565029767285955 -1.9773577184720021 L0.565029767285955 -1.9773577184720021 L-0.5650297672859526 -1.9773577184720015 L-0.5650297672859526 -1.9773577184720015 z"/>
<path fill="#000000" stroke="#000000" d="M-0.5650297672859526 -1.9773577184720013 L-0.5650297672859526 -1.9773577184720013 L-1.6187789008478668 -2.385582307631435 L-1.6187789008478668 -2.385582307631435 z"/>
<path fill="#000000" stroke="#000000" d="M-1.6451005089917377 2.343071450844956 L-1.6451005089917377 2.343071450844956 L-0.5742172431767835 1.928209063487807 L-0.5742172431767835 1.928209063487807 z"/>
<path fill="#000000" stroke="#000000" d="M-2.059999999999999 2.7213023126519724 L-2.059999999999999 2.7213023126519724 L-1.6451005089917379 2.343071450844956 L-1.6451005089917379 2.343071450844956 z"/>
<path fill="#000000" stroke="#000000" d="M-1.618778900847867 -2.385582307631435 L-1.618778900847867 -2.385582307631435 L-2.453902973886735 -3.146898493133785 L-2.453902973886735 -3.146898493133785 z"/>
<path fill="#000000" stroke="#000000" d="M-0.5742172431767835 1.928209063487807 L-0.5742172431767835 1.928209063487807 L0.574217243176781 1.9282090634878064 L0.574217243176781 1.9282090634878064 z"/>
<path fill="#000000" stroke="#000000" d="M-1.1288802068348525 7.913975716888611 L-1.1288802068348525 7.913975716888611 L-2.059999999999999 7.337450749307003 L-2.059999999999999 7.337450749307003 z"/>
<path fill="#000000" stroke="#000000" d="M1.6187789008478701 -2.3855823076314366 L1.6187789008478701 -2.3855823076314366 L0.565029767285955 -1.9773577184720021 L0.565029767285955 -1.9773577184720021 z"/>
<path fill="#000000" stroke="#000000" d="M2.4539029738867364 -3.1468984931337864 L2.4539029738867364 -3.1468984931337864 L1.6187789008478701 -2.3855823076314366 L1.6187789008478701 -2.3855823076314366 z"/>
<path fill="#000000" stroke="#000000" d="M1.1288802068348502 7.913975716888613 L1.1288802068348502 7.913975716888613 L-1.9135106236677392e-16 8.124999999999998 L-1.9135106236677392e-16 8.124999999999998 z"/>
<path fill="#000000" stroke="#000000" d="M2.9576138527564186 -4.158486305528345 L2.9576138527564186 -4.158486305528345 L2.4539029738867364 -3.146898493133786 L2.4539029738867364 -3.146898493133786 z"/>
<path fill="#000000" stroke="#000000" d="M9.999999999999998 8.124999999999998 L9.999999999999998 8.124999999999998 L8.871119793165144 7.913975716888611 L8.871119793165144 7.913975716888611 z"/>
<path fill="#000000" stroke="#000000" d="M13.086775946514607 -5.286031914336236 L13.086775946514607 -5.286031914336236 L12.981659493835739 -4.1516447307765425 L12.981659493835739 -4.1516447307765425 z"/>
<path fill="#000000" stroke="#000000" d="M13.005705134915058 4.1448031560247385 L13.005705134915058 4.1448031560247385 L13.111669300921982 5.288338623322817 L13.111669300921982 5.288338623322817 z"/>
<path fill="#000000" stroke="#000000" d="M17.50619616474925 -3.116766761314822 L17.50619616474925 -3.116766761314822 L16.99429486508494 -4.1448031560247385 L16.99429486508494 -4.1448031560247385 z"/>
<path fill="#000000" stroke="#000000" d="M3.111669300921983 5.288338623322817 L3.111669300921983 5.288338623322817 L2.7973852854845704 6.392932361801679 L2.7973852854845704 6.392932361801679 z"/>
<path fill="#000000" stroke="#000000" d="M-1.1108181235254926 -7.867352105418395 L-1.1108181235254926 -7.867352105418395 L1.8828944536890555e-16 -8.075 L1.8828944536890555e-16 -8.075 z"/>
<path fill="#000000" stroke="#000000" d="M-9.999999999999998 -8.049999999999999 L-9.999999999999998 -8.049999999999999 L-8.898212918129182 -7.844040299683284 L-8.898212918129182 -7.844040299683284 z"/>
<path fill="#000000" stroke="#000000" d="M-8.898212918129182 -7.844040299683284 L-8.898212918129182 -7.844040299683284 L-7.945228286878 -7.253977197523009 L-7.945228286878 -7.253977197523009 z"/>
<path fill="#000000" stroke="#000000" d="M7.911543504695672 -7.290927643384043 L7.911543504695672 -7.290927643384043 L8.880150834819826 -7.890663911153503 L8.880150834819826 -7.890663911153503 z"/>
<path fill="#000000" stroke="#000000" d="M-2.7526271209168174 -6.370645444012853 L-2.7526271209168174 -6.370645444012853 L-2.0716141042131637 -7.272452420453526 L-2.0716141042131637 -7.272452420453526 z"/>
<path fill="#000000" stroke="#000000" d="M-3.0618825921072315 -5.2837252053496515 L-3.0618825921072315 -5.2837252053496515 L-2.7526271209168174 -6.370645444012853 L-2.7526271209168174 -6.370645444012853 z"/>
<path fill="#000000" stroke="#000000" d="M-7.26975196136706 -6.359501985118442 L-7.26975196136706 -6.359501985118442 L-6.9630107623001445 -5.281418496363071 L-6.9630107623001445 -5.281418496363071 z"/>
<path fill="#000000" stroke="#000000" d="M-7.202614714515429 6.392932361801679 L-7.202614714515429 6.392932361801679 L-7.8947011136045075 7.309402866314559 L-7.8947011136045075 7.309402866314559 z"/>
<path fill="#000000" stroke="#000000" d="M-2.453902973886735 -3.1468984931337847 L-2.453902973886735 -3.1468984931337847 L-2.9576138527564177 -4.158486305528343 L-2.9576138527564177 -4.158486305528343 z"/>
<path fill="#000000" stroke="#000000" d="M-2.0599999999999996 7.337450749307003 L-2.0599999999999996 7.337450749307003 L-2.0599999999999996 2.7213023126519724 L-2.0599999999999996 2.7213023126519724 z"/>
<path fill="#000000" stroke="#000000" d="M2.1052988863954907 7.30940286631456 L2.1052988863954907 7.30940286631456 L1.1288802068348502 7.913975716888613 L1.1288802068348502 7.913975716888613 z"/>
<path fill="#000000" stroke="#000000" d="M-2.9576138527564177 -4.158486305528343 L-2.9576138527564177 -4.158486305528343 L-3.061882592107231 -5.2837252053496515 L-3.061882592107231 -5.2837252053496515 z"/>
<path fill="#000000" stroke="#000000" d="M3.0618825921072306 -5.283725205349653 L3.0618825921072306 -5.283725205349653 L2.9576138527564186 -4.158486305528345 L2.9576138527564186 -4.158486305528345 z"/>
<path fill="#000000" stroke="#000000" d="M-8.354899491008263 2.343071450844955 L-8.354899491008263 2.343071450844955 L-7.506196164749252 3.116766761314823 L-7.506196164749252 3.116766761314823 z"/>
<path fill="#000000" stroke="#000000" d="M-9.425782756823217 1.9282090634878064 L-9.425782756823217 1.9282090634878064 L-8.354899491008265 2.3430714508449544 L-8.354899491008265 2.3430714508449544 z"/>
<path fill="#000000" stroke="#000000" d="M-9.439563970659458 -2.0019320459641 L-9.439563970659458 -2.0019320459641 L-10.560436029340536 -2.0019320459640992 L-10.560436029340536 -2.0019320459640992 z"/>
<path fill="#000000" stroke="#000000" d="M-10.560436029340536 -2.001932045964099 L-10.560436029340536 -2.001932045964099 L-11.60561809677593 -2.406837736024675 L-11.60561809677593 -2.406837736024675 z"/>
<path fill="#000000" stroke="#000000" d="M-11.645100508991735 2.3430714508449557 L-11.645100508991735 2.3430714508449557 L-10.574217243176783 1.928209063487807 L-10.574217243176783 1.928209063487807 z"/>
<path fill="#000000" stroke="#000000" d="M-10.574217243176783 1.928209063487807 L-10.574217243176783 1.928209063487807 L-9.425782756823217 1.9282090634878062 L-9.425782756823217 1.9282090634878062 z"/>
<path fill="#000000" stroke="#000000" d="M-12.039999999999997 2.703069903598499 L-12.039999999999997 2.703069903598499 L-11.645100508991737 2.343071450844956 L-11.645100508991737 2.343071450844956 z"/>
<path fill="#000000" stroke="#000000" d="M-12.04 7.349834225027604 L-12.04 7.349834225027604 L-12.04 2.7030699035985 L-12.04 2.7030699035985 z"/>
<path fill="#000000" stroke="#000000" d="M-11.605618096775931 -2.406837736024674 L-11.605618096775931 -2.406837736024674 L-12.433952543204727 -3.161964359043266 L-12.433952543204727 -3.161964359043266 z"/>
<path fill="#000000" stroke="#000000" d="M-16.888330699078015 5.288338623322817 L-16.888330699078015 5.288338623322817 L-17.202614714515427 6.392932361801679 L-17.202614714515427 6.392932361801679 z"/>
<path fill="#000000" stroke="#000000" d="M-17.894701113604505 7.309402866314559 L-17.894701113604505 7.309402866314559 L-18.871119793165146 7.913975716888612 L-18.871119793165146 7.913975716888612 z"/>
<path fill="#000000" stroke="#000000" d="M-8.394381903224062 -2.406837736024678 L-8.394381903224062 -2.406837736024678 L-9.439563970659458 -2.0019320459641 L-9.439563970659458 -2.0019320459641 z"/>
<path fill="#000000" stroke="#000000" d="M-7.5660474567952685 -3.1619643590432687 L-7.5660474567952685 -3.1619643590432687 L-8.394381903224062 -2.4068377360246784 L-8.394381903224062 -2.4068377360246784 z"/>
<path fill="#000000" stroke="#000000" d="M-8.871119793165148 7.913975716888612 L-8.871119793165148 7.913975716888612 L-9.999999999999998 8.124999999999998 L-9.999999999999998 8.124999999999998 z"/>
<path fill="#000000" stroke="#000000" d="M-7.5061961647492526 3.116766761314822 L-7.5061961647492526 3.116766761314822 L-6.994294865084941 4.1448031560247385 L-6.994294865084941 4.1448031560247385 z"/>
<path fill="#000000" stroke="#000000" d="M-1.913510623667739e-16 8.125 L-1.913510623667739e-16 8.125 L-1.1288802068348525 7.913975716888611 L-1.1288802068348525 7.913975716888611 z"/>
<path fill="#000000" stroke="#000000" d="M-7.8947011136045075 7.309402866314559 L-7.8947011136045075 7.309402866314559 L-8.871119793165148 7.913975716888612 L-8.871119793165148 7.913975716888612 z"/>
<path fill="#000000" stroke="#000000" d="M3.0057051349150585 4.1448031560247385 L3.0057051349150585 4.1448031560247385 L3.1116693009219825 5.288338623322817 L3.1116693009219825 5.288338623322817 z"/>
<path fill="#000000" stroke="#000000" d="M-9.999999999999998 8.125 L-9.999999999999998 8.125 L-11.12888020683485 7.913975716888611 L-11.12888020683485 7.913975716888611 z"/>
<path fill="#000000" stroke="#000000" d="M-6.888330699078017 5.288338623322817 L-6.888330699078017 5.288338623322817 L-7.202614714515429 6.392932361801679 L-7.202614714515429 6.392932361801679 z"/>
<path fill="#000000" stroke="#000000" d="M-7.945228286878 -7.253977197523009 L-7.945228286878 -7.253977197523009 L-7.269751961367059 -6.359501985118441 L-7.269751961367059 -6.359501985118441 z"/>
<path fill="#000000" stroke="#000000" d="M-19.999999999999996 -8.024999999999999 L-19.999999999999996 -8.024999999999999 L-18.90724395978386 -7.820728493948176 L-18.90724395978386 -7.820728493948176 z"/>
<path fill="#000000" stroke="#000000" d="M-2.071614104213163 -7.272452420453527 L-2.071614104213163 -7.272452420453527 L-1.1108181235254926 -7.867352105418395 L-1.1108181235254926 -7.867352105418395 z"/>
<path fill="#000000" stroke="#000000" d="M-12.73024803863294 -6.359501985118439 L-12.73024803863294 -6.359501985118439 L-12.054771713122 -7.253977197523009 L-12.054771713122 -7.253977197523009 z"/>
<path fill="#000000" stroke="#000000" d="M-13.036989237699855 -5.281418496363069 L-13.036989237699855 -5.281418496363069 L-12.73024803863294 -6.359501985118439 L-12.73024803863294 -6.359501985118439 z"/>
<path fill="#000000" stroke="#000000" d="M-17.292131043650937 -6.348358526224027 L-17.292131043650937 -6.348358526224027 L-16.98790411670752 -5.279111787376489 L-16.98790411670752 -5.279111787376489 z"/>
<path fill="#000000" stroke="#000000" d="M-17.202614714515427 6.392932361801679 L-17.202614714515427 6.392932361801679 L-17.894701113604505 7.309402866314559 L-17.894701113604505 7.309402866314559 z"/>
<path fill="#000000" stroke="#000000" d="M-11.12888020683485 7.913975716888612 L-11.12888020683485 7.913975716888612 L-12.04 7.349834225027604 L-12.04 7.349834225027604 z"/>
<path fill="#000000" stroke="#000000" d="M-7.066431788322902 -4.165327880280147 L-7.066431788322902 -4.165327880280147 L-7.566047456795269 -3.1619643590432682 L-7.566047456795269 -3.1619643590432682 z"/>
<path fill="#000000" stroke="#000000" d="M-12.933568211677096 -4.165327880280144 L-12.933568211677096 -4.165327880280144 L-13.036989237699855 -5.281418496363069 L-13.036989237699855 -5.281418496363069 z"/>
<path fill="#000000" stroke="#000000" d="M-6.9630107623001445 -5.28141849636307 L-6.9630107623001445 -5.28141849636307 L-7.066431788322902 -4.165327880280147 L-7.066431788322902 -4.165327880280147 z"/>
<path fill="#000000" stroke="#000000" d="M-18.35489949100826 2.3430714508449557 L-18.35489949100826 2.3430714508449557 L-17.506196164749248 3.1167667613148247 L-17.506196164749248 3.1167667613148247 z"/>
<path fill="#000000" stroke="#000000" d="M-19.425782756823214 1.928209063487807 L-19.425782756823214 1.928209063487807 L-18.35489949100826 2.3430714508449544 L-18.35489949100826 2.3430714508449544 z"/>
<path fill="#000000" stroke="#000000" d="M-19.44415770860487 -2.0265063734561974 L-19.44415770860487 -2.0265063734561974 L-20.55584229139512 -2.026506373456197 L-20.55584229139512 -2.026506373456197 z"/>
<path fill="#000000" stroke="#000000" d="M-20.555842291395123 -2.0265063734561966 L-20.555842291395123 -2.0265063734561966 L-21.592457292703994 -2.4280931644179153 L-21.592457292703994 -2.4280931644179153 z"/>
<path fill="#000000" stroke="#000000" d="M-21.645100508991735 2.343071450844956 L-21.645100508991735 2.343071450844956 L-20.57421724317678 1.9282090634878064 L-20.57421724317678 1.9282090634878064 z"/>
<path fill="#000000" stroke="#000000" d="M-20.574217243176783 1.928209063487807 L-20.574217243176783 1.928209063487807 L-19.425782756823214 1.9282090634878062 L-19.425782756823214 1.9282090634878062 z"/>
<path fill="#000000" stroke="#000000" d="M-22.02 7.3622177007482055 L-22.02 7.3622177007482055 L-22.02 2.6848374945450266 L-22.02 2.6848374945450266 z"/>
<path fill="#000000" stroke="#000000" d="M-21.592457292703997 -2.4280931644179153 L-21.592457292703997 -2.4280931644179153 L-22.414002112522716 -3.177030224952745 L-22.414002112522716 -3.177030224952745 z"/>
<path fill="#000000" stroke="#000000" d="M-22.019999999999996 2.6848374945450257 L-22.019999999999996 2.6848374945450257 L-21.64510050899173 2.3430714508449535 L-21.64510050899173 2.3430714508449535 z"/>
<path fill="#000000" stroke="#000000" d="M-26.888330699078015 5.288338623322817 L-26.888330699078015 5.288338623322817 L-27.202614714515427 6.392932361801679 L-27.202614714515427 6.392932361801679 z"/>
<path fill="#000000" stroke="#000000" d="M-27.894701113604505 7.309402866314557 L-27.894701113604505 7.309402866314557 L-28.871119793165146 7.913975716888611 L-28.871119793165146 7.913975716888611 z"/>
<path fill="#000000" stroke="#000000" d="M-18.407542707295995 -2.4280931644179184 L-18.407542707295995 -2.4280931644179184 L-19.44415770860487 -2.0265063734561974 L-19.44415770860487 -2.0265063734561974 z"/>
<path fill="#000000" stroke="#000000" d="M-17.585997887477273 -3.1770302249527513 L-17.585997887477273 -3.1770302249527513 L-18.407542707295995 -2.428093164417919 L-18.407542707295995 -2.428093164417919 z"/>
<path fill="#000000" stroke="#000000" d="M-18.871119793165146 7.913975716888612 L-18.871119793165146 7.913975716888612 L-19.999999999999996 8.124999999999998 L-19.999999999999996 8.124999999999998 z"/>
<path fill="#000000" stroke="#000000" d="M-17.50619616474925 3.116766761314822 L-17.50619616474925 3.116766761314822 L-16.99429486508494 4.1448031560247385 L-16.99429486508494 4.1448031560247385 z"/>
<path fill="#000000" stroke="#000000" d="M-6.994294865084941 4.1448031560247385 L-6.994294865084941 4.1448031560247385 L-6.888330699078017 5.288338623322817 L-6.888330699078017 5.288338623322817 z"/>
<path fill="#000000" stroke="#000000" d="M-18.90724395978386 -7.820728493948174 L-18.90724395978386 -7.820728493948174 L-17.962070677969162 -7.235501974592493 L-17.962070677969162 -7.235501974592493 z"/>
<path fill="#000000" stroke="#000000" d="M35 -10 L35 -10 L-35 -10 L-35 -10 z"/>
<path fill="#000000" stroke="#000000" d="M-17.962070677969162 -7.235501974592493 L-17.962070677969162 -7.235501974592493 L-17.292131043650933 -6.348358526224027 L-17.292131043650933 -6.348358526224027 z"/>
<path fill="#000000" stroke="#000000" d="M-12.054771713121998 -7.25397719752301 L-12.054771713121998 -7.25397719752301 L-11.101787081870812 -7.844040299683286 L-11.101787081870812 -7.844040299683286 z"/>
<path fill="#000000" stroke="#000000" d="M-11.101787081870812 -7.844040299683286 L-11.101787081870812 -7.844040299683286 L-9.999999999999998 -8.049999999999999 L-9.999999999999998 -8.049999999999999 z"/>
<path fill="#000000" stroke="#000000" d="M-21.09275604021613 -7.820728493948177 L-21.09275604021613 -7.820728493948177 L-19.999999999999996 -8.024999999999999 L-19.999999999999996 -8.024999999999999 z"/>
<path fill="#000000" stroke="#000000" d="M-22.707868956349063 -6.348358526224026 L-22.707868956349063 -6.348358526224026 L-22.037929322030834 -7.235501974592493 L-22.037929322030834 -7.235501974592493 z"/>
<path fill="#000000" stroke="#000000" d="M-23.012095883292478 -5.279111787376487 L-23.012095883292478 -5.279111787376487 L-22.707868956349063 -6.348358526224025 L-22.707868956349063 -6.348358526224025 z"/>
<path fill="#000000" stroke="#000000" d="M-27.31451012593481 -6.337215067329614 L-27.31451012593481 -6.337215067329614 L-27.012797471114894 -5.276805078389906 L-27.012797471114894 -5.276805078389906 z"/>
<path fill="#000000" stroke="#000000" d="M-27.202614714515427 6.392932361801679 L-27.202614714515427 6.392932361801679 L-27.894701113604505 7.309402866314559 L-27.894701113604505 7.309402866314559 z"/>
<path fill="#000000" stroke="#000000" d="M-21.128880206834847 7.913975716888613 L-21.128880206834847 7.913975716888613 L-22.019999999999996 7.362217700748207 L-22.019999999999996 7.362217700748207 z"/>
<path fill="#000000" stroke="#000000" d="M-17.09047742940222 -4.172169455031949 L-17.09047742940222 -4.172169455031949 L-17.585997887477273 -3.177030224952749 L-17.585997887477273 -3.177030224952749 z"/>
<path fill="#000000" stroke="#000000" d="M-22.909522570597776 -4.172169455031947 L-22.909522570597776 -4.172169455031947 L-23.012095883292478 -5.279111787376487 L-23.012095883292478 -5.279111787376487 z"/>
<path fill="#000000" stroke="#000000" d="M-16.98790411670752 -5.279111787376488 L-16.98790411670752 -5.279111787376488 L-17.09047742940222 -4.172169455031949 L-17.09047742940222 -4.172169455031949 z"/>
<path fill="#000000" stroke="#000000" d="M-28.35489949100826 2.3430714508449575 L-28.35489949100826 2.3430714508449575 L-27.50619616474925 3.116766761314823 L-27.50619616474925 3.116766761314823 z"/>
<path fill="#000000" stroke="#000000" d="M-29.425782756823214 1.9282090634878073 L-29.425782756823214 1.9282090634878073 L-28.35489949100826 2.3430714508449557 L-28.35489949100826 2.3430714508449557 z"/>
<path fill="#000000" stroke="#000000" d="M-29.448751446550286 -2.0510807009482948 L-29.448751446550286 -2.0510807009482948 L-30.551248553449703 -2.0510807009482943 L-30.551248553449703 -2.0510807009482943 z"/>
<path fill="#000000" stroke="#000000" d="M-30.551248553449707 -2.051080700948293 L-30.551248553449707 -2.051080700948293 L-31.57929648863206 -2.4493485928111554 L-31.57929648863206 -2.4493485928111554 z"/>
<path fill="#000000" stroke="#000000" d="M-31.645100508991735 2.3430714508449553 L-31.645100508991735 2.3430714508449553 L-30.57421724317678 1.928209063487806 L-30.57421724317678 1.928209063487806 z"/>
<path fill="#000000" stroke="#000000" d="M-30.574217243176783 1.928209063487807 L-30.574217243176783 1.928209063487807 L-29.425782756823214 1.9282090634878062 L-29.425782756823214 1.9282090634878062 z"/>
<path fill="#000000" stroke="#000000" d="M-31.999999999999993 2.6666050854915486 L-31.999999999999993 2.6666050854915486 L-31.64510050899173 2.3430714508449517 L-31.64510050899173 2.3430714508449517 z"/>
<path fill="#000000" stroke="#000000" d="M-31.57929648863206 -2.449348592811154 L-31.57929648863206 -2.449348592811154 L-32.394051681840715 -3.1920960908622282 L-32.394051681840715 -3.1920960908622282 z"/>
<path fill="#000000" stroke="#000000" d="M-32.394051681840715 -3.192096090862229 L-32.394051681840715 -3.192096090862229 L-32.885476929518454 -4.179011029783749 L-32.885476929518454 -4.179011029783749 z"/>
<path fill="#000000" stroke="#000000" d="M-32 7.374601176468807 L-32 7.374601176468807 L-32 2.6666050854915544 L-32 2.6666050854915544 z"/>
<path fill="#000000" stroke="#000000" d="M-27.605948318159278 -3.192096090862233 L-27.605948318159278 -3.192096090862233 L-28.42070351136793 -2.44934859281116 L-28.42070351136793 -2.44934859281116 z"/>
<path fill="#000000" stroke="#000000" d="M-19.999999999999996 8.125 L-19.999999999999996 8.125 L-21.128880206834847 7.913975716888612 L-21.128880206834847 7.913975716888612 z"/>
<path fill="#000000" stroke="#000000" d="M-27.50619616474925 3.116766761314822 L-27.50619616474925 3.116766761314822 L-26.99429486508494 4.1448031560247385 L-26.99429486508494 4.1448031560247385 z"/>
<path fill="#000000" stroke="#000000" d="M-16.99429486508494 4.1448031560247385 L-16.99429486508494 4.1448031560247385 L-16.888330699078015 5.288338623322817 L-16.888330699078015 5.288338623322817 z"/>
<path fill="#000000" stroke="#000000" d="M-22.03792932203083 -7.235501974592496 L-22.03792932203083 -7.235501974592496 L-21.09275604021613 -7.820728493948179 L-21.09275604021613 -7.820728493948179 z"/>
<path fill="#000000" stroke="#000000" d="M-26.99429486508494 4.1448031560247385 L-26.99429486508494 4.1448031560247385 L-26.888330699078015 5.288338623322817 L-26.888330699078015 5.288338623322817 z"/>
<path fill="#000000" stroke="#000000" d="M-12.433952543204729 -3.1619643590432664 L-12.433952543204729 -3.1619643590432664 L-12.933568211677096 -4.165327880280145 L-12.933568211677096 -4.165327880280145 z"/>
<path fill="#000000" stroke="#000000" d="M-27.978913069060326 -7.217026751661977 L-27.978913069060326 -7.217026751661977 L-27.31451012593481 -6.337215067329614 L-27.31451012593481 -6.337215067329614 z"/>
<path fill="#000000" stroke="#000000" d="M-28.91627500143854 -7.797416688213066 L-28.91627500143854 -7.797416688213066 L-27.978913069060322 -7.217026751661976 L-27.978913069060322 -7.217026751661976 z"/>
<path fill="#000000" stroke="#000000" d="M-31.08372499856145 -7.797416688213069 L-31.08372499856145 -7.797416688213069 L-29.999999999999993 -8 L-29.999999999999993 -8 z"/>
<path fill="#000000" stroke="#000000" d="M-29.999999999999996 -7.999999999999999 L-29.999999999999996 -7.999999999999999 L-28.91627500143854 -7.797416688213067 L-28.91627500143854 -7.797416688213067 z"/>
<path fill="#000000" stroke="#000000" d="M-32.02108693093967 -7.217026751661978 L-32.02108693093967 -7.217026751661978 L-31.083724998561454 -7.797416688213069 L-31.083724998561454 -7.797416688213069 z"/>
<path fill="#000000" stroke="#000000" d="M-32.68548987406518 -6.337215067329613 L-32.68548987406518 -6.337215067329613 L-32.02108693093967 -7.217026751661977 L-32.02108693093967 -7.217026751661977 z"/>
<path fill="#000000" stroke="#000000" d="M-35 -10 L-35 -10 L-35 10 L-35 10 z"/>
<path fill="#000000" stroke="#000000" d="M-32.885476929518454 -4.179011029783749 L-32.885476929518454 -4.179011029783749 L-32.9872025288851 -5.276805078389904 L-32.9872025288851 -5.276805078389904 z"/>
<path fill="#000000" stroke="#000000" d="M-31.128880206834847 7.913975716888613 L-31.128880206834847 7.913975716888613 L-31.999999999999996 7.374601176468808 L-31.999999999999996 7.374601176468808 z"/>
<path fill="#000000" stroke="#000000" d="M-29.999999999999993 8.125 L-29.999999999999993 8.125 L-31.128880206834847 7.913975716888612 L-31.128880206834847 7.913975716888612 z"/>
<path fill="#000000" stroke="#000000" d="M-28.871119793165143 7.913975716888612 L-28.871119793165143 7.913975716888612 L-29.999999999999996 8.124999999999998 L-29.999999999999996 8.124999999999998 z"/>
<path fill="#000000" stroke="#000000" d="M-28.42070351136793 -2.4493485928111585 L-28.42070351136793 -2.4493485928111585 L-29.448751446550286 -2.0510807009482948 L-29.448751446550286 -2.0510807009482948 z"/>
<path fill="#000000" stroke="#000000" d="M-27.114523070481543 -4.179011029783751 L-27.114523070481543 -4.179011029783751 L-27.605948318159278 -3.1920960908622305 L-27.605948318159278 -3.1920960908622305 z"/>
<path fill="#000000" stroke="#000000" d="M-32.9872025288851 -5.276805078389904 L-32.9872025288851 -5.276805078389904 L-32.68548987406518 -6.337215067329613 L-32.68548987406518 -6.337215067329613 z"/>
<path fill="#000000" stroke="#000000" d="M-27.012797471114894 -5.276805078389906 L-27.012797471114894 -5.276805078389906 L-27.114523070481543 -4.1790110297837515 L-27.114523070481543 -4.1790110297837515 z"/>
<path fill="#000000" stroke="#000000" d="M-22.41400211252272 -3.177030224952748 L-22.41400211252272 -3.177030224952748 L-22.909522570597776 -4.172169455031947 L-22.909522570597776 -4.172169455031947 z"/>
<path fill="#000000" stroke="#000000" d="M-35 10 L-35 10 L35 10 L35 10 z"/>
<path fill="#000000" stroke="#000000" d="M35 9.999999999999998 L35 -9.999999999999998 L-35 -9.999999999999998 L-35 9.999999999999998 M-32.9872025288851 -5.276805078389904 L-32.68548987406518 -6.337215067329613 L-32.02108693093967 -7.217026751661976 L-31.083724998561454 -7.797416688213068 L-29.999999999999996 -7.999999999999998 L-28.91627500143854 -7.797416688213066 L-27.978913069060326 -7.217026751661976 L-27.314510125934813 -6.337215067329614 L-27.012797471114894 -5.276805078389906 L-27.114523070481543 -4.1790110297837515 L-27.605948318159278 -3.192096090862231 L-28.42070351136793 -2.449348592811158 L-29.448751446550286 -2.0510807009482943 L-30.551248553449707 -2.051080700948294 L-31.579296488632064 -2.449348592811156 L-32.394051681840715 -3.192096090862229 L-32.885476929518454 -4.179011029783749 z"/>
<path fill="#000000" stroke="#000000" d="M35 -9.999999999999998 L35 9.999999999999998 L-35 9.999999999999998 L-35 -9.999999999999998 M-27.012797471114894 -5.276805078389906 L-27.314510125934813 -6.337215067329614 L-27.978913069060326 -7.217026751661976 L-28.91627500143854 -7.797416688213066 L-29.999999999999996 -7.999999999999998 L-31.083724998561454 -7.797416688213068 L-32.02108693093967 -7.217026751661976 L-32.68548987406518 -6.337215067329613 L-32.9872025288851 -5.276805078389904 L-32.885476929518454 -4.179011029783749 L-32.394051681840715 -3.192096090862229 L-31.579296488632064 -2.449348592811156 L-30.551248553449707 -2.051080700948294 L-29.448751446550286 -2.0510807009482943 L-28.42070351136793 -2.449348592811158 L-27.605948318159278 -3.192096090862231 L-27.114523070481543 -4.1790110297837515 z"/>
</svg>